<svg version="1.0" xmlns="http://www.w3.org/2000/svg"
 width="52.000000pt" height="51.000000pt" viewBox="0 0 52.000000 51.000000"
 preserveAspectRatio="xMidYMid meet">
<g transform="translate(0.000000,51.000000) scale(0.100000,-0.100000)"
fill="#417F56" stroke="none">
<path d="M409 473 c-13 -16 -12 -17 4 -4 9 7 17 15 17 17 0 8 -8 3 -21 -13z"/>
<path d="M395 410 c-50 -51 -78 -52 -34 -2 13 15 4 9 -19 -13 -36 -33 -42 -45
-38 -67 5 -23 -10 -42 -125 -155 -95 -95 -128 -134 -123 -146 11 -30 42 -18
81 30 89 109 89 109 109 93 16 -12 17 -12 7 0 -17 19 -16 33 1 27 9 -4 12 0
10 11 -7 26 60 98 88 94 17 -2 40 15 93 70 53 55 56 60 13 19 -32 -30 -61 -52
-64 -48 -7 7 0 17 61 87 16 19 4 11 -27 -19 -32 -30 -61 -52 -64 -48 -4 4 14
31 40 62 26 30 46 55 44 55 -2 0 -26 -23 -53 -50z"/>
<path d="M135 410 c-3 -5 -2 -17 3 -26 8 -14 10 -12 10 9 0 29 -3 33 -13 17z"/>
<path d="M180 350 c0 -5 5 -10 11 -10 5 0 7 5 4 10 -3 6 -8 10 -11 10 -2 0 -4
-4 -4 -10z"/>
<path d="M130 301 c0 -5 7 -12 16 -15 14 -5 15 -4 4 9 -14 17 -20 19 -20 6z"/>
<path d="M190 220 c0 -5 5 -10 11 -10 5 0 7 5 4 10 -3 6 -8 10 -11 10 -2 0 -4
-4 -4 -10z"/>
<path d="M291 184 c0 -11 3 -14 6 -6 3 7 2 16 -1 19 -3 4 -6 -2 -5 -13z"/>
<path d="M310 131 c0 -6 4 -13 10 -16 6 -3 7 1 4 9 -7 18 -14 21 -14 7z"/>
<path d="M327 79 c7 -7 15 -10 18 -7 3 3 -2 9 -12 12 -14 6 -15 5 -6 -5z"/>
</g>
</svg>